<?xml version="1.0" standalone="no"?>
<!DOCTYPE svg PUBLIC "-//W3C//DTD SVG 20010904//EN"
 "http://www.w3.org/TR/2001/REC-SVG-20010904/DTD/svg10.dtd">
<svg version="1.0" xmlns="http://www.w3.org/2000/svg"
 width="647.000000pt" height="647.000000pt" viewBox="0 0 647.000000 647.000000"
 preserveAspectRatio="xMidYMid meet">
<metadata>
Created by potrace 1.11, written by Peter Selinger 2001-2013
</metadata>
<g transform="translate(0.000000,647.000000) scale(0.100000,-0.100000)"
fill="#000000" stroke="none">
<path d="M3018 6425 c-1 -1 -41 -6 -88 -9 -71 -6 -193 -24 -345 -51 -141 -26
-417 -109 -560 -170 -230 -97 -392 -185 -590 -320 -67 -45 -132 -91 -145 -102
-14 -12 -59 -49 -100 -83 -126 -104 -297 -275 -405 -405 -28 -33 -52 -62 -55
-65 -3 -3 -28 -36 -56 -75 -334 -460 -525 -939 -600 -1500 -19 -142 -25 -526
-11 -670 4 -44 10 -98 12 -120 18 -199 133 -639 205 -788 11 -22 20 -45 20
-50 0 -5 31 -71 69 -148 211 -422 447 -726 811 -1044 50 -43 212 -164 300
-222 352 -235 788 -407 1205 -477 206 -34 282 -40 530 -40 206 -1 346 6 414
19 13 2 42 7 65 9 22 3 51 8 62 10 12 2 37 7 55 10 19 3 45 8 59 11 14 3 36 8
50 11 115 23 392 109 495 153 28 12 63 27 79 34 16 7 89 42 161 78 431 217
812 535 1106 924 63 84 152 213 181 266 14 24 42 73 63 109 155 271 306 701
350 995 3 22 10 67 15 100 31 197 34 732 5 845 -2 8 -6 35 -9 60 -24 188 -109
513 -177 675 -7 17 -13 32 -13 35 -3 17 -78 181 -121 265 -198 385 -467 722
-794 995 -29 25 -59 50 -65 55 -52 48 -310 220 -411 276 -231 126 -411 201
-690 289 -51 16 -242 59 -308 70 -34 5 -71 12 -82 14 -11 2 -49 7 -85 11 -36
4 -74 9 -85 12 -23 5 -511 13 -517 8z"/>
</g>
</svg>
